<svg width="795" height="214" viewBox="0 0 795 214" fill="none" xmlns="http://www.w3.org/2000/svg">
<path d="M15 123V87V41.5L37 19.5H109.5L15 123Z" fill="#00266D" style="fill:#00266D;fill:color(display-p3 0.0000 0.1498 0.4279);fill-opacity:1;"/>
<path d="M172.2 88.5V160H187.7H203.2V126C203.2 93.4 203.3 91.9 205.3 88.3C208.3 82.9 209.1 82.1 213.4 79.9C224.8 74.1 239.5 78.7 242.1 88.8C242.6 90.9 243.2 107.7 243.4 126.2L243.7 160H259.5H275.2V122.2C275.2 86.2 275.1 84 273 77.4C270.4 69 267.8 64.7 262.2 59.6C254 52.2 241.4 48.9 229.5 51C220.6 52.5 215.3 54.9 209.9 59.9C207.5 62.2 205 64 204.3 64C203.5 64 203.2 57.4 203.2 40.5V17H187.7H172.2V88.5Z" fill="#0D1B39" style="fill:#0D1B39;fill:color(display-p3 0.0525 0.1053 0.2250);fill-opacity:1;"/>
<path d="M624.3 72.2C624.4 131.1 624.9 138.4 629.4 147.2C635 157.9 649.2 164.3 663.6 162.5L669.2 161.8V149.5V137.3L665.4 136.6C663.3 136.3 660.6 135.1 659.4 134C657.2 131.9 657.2 131.9 657 89.7C656.9 66.5 656.9 42.1 657 35.5C657.2 28.9 657 22 656.7 20.2L656.1 17H640.2H624.3V72.2Z" fill="#0D1B39" style="fill:#0D1B39;fill:color(display-p3 0.0525 0.1053 0.2250);fill-opacity:1;"/>
<path d="M119.4 23C119.4 23 95.2 46.5 93.9 48.3C94.4 48.5 96.5 49.1 98.7 49.5C107.3 51 115.3 56.9 119.2 64.7C121.4 68.9 121.7 70.8 121.7 80C121.7 89.2 121.4 91.1 119.2 95.4C115.7 102.3 109.3 107.6 101.4 110C96.1 111.7 92.1 112 77.8 112C58.6 112 52.6 113.1 43 118.2C36.8 121.5 27.6 130.6 24.7 136.2C19.1 147.3 18.9 148.5 18.4 170.2L18 191H34.6V191C43.7679 191 51.2 183.568 51.2 174.4V166.5V146.301C51.2 143.91 53.1092 141.956 55.5 141.9V141.9C57.8 141.8 68.7 141.7 79.7 141.5C90.7 141.4 102.2 141 105.2 140.5C112.9 139.4 123.4 135.7 129.9 131.8C150.3 119.4 161.3 91.4 155.7 66.3C154.1 59.7 150.3 49 149.1 48C148.8 47.7 147.9 46.4 147.2 45.1C142.7 36.6 125.7 23 119.4 23Z" fill="#0D1B39" style="fill:#0D1B39;fill:color(display-p3 0.0525 0.1053 0.2250);fill-opacity:1;"/>
<path d="M325.9 51.6C318 53 308.9 56.6 301.5 61.3L297.3 64L300 68.6C301.5 71.1 303.5 74.4 304.4 75.8C305.4 77.3 306.8 79.7 307.7 81.2C308.6 82.8 309.4 84 309.6 84C309.7 84 312.6 82.6 316 81C332.6 72.6 351.1 74.1 356.3 84.2C357.4 86.4 358.2 89.5 358 91.3L357.7 94.5L340.2 95.1C321.9 95.8 316.4 96.8 307.2 101.5C301.5 104.4 294.8 111 293.2 115.2C292.6 117 291.6 119.3 291.1 120.2C289.9 122.5 289.9 136.7 291.1 137.4C291.6 137.7 292.3 139.5 292.6 141.3C293.8 147.6 300.9 155 310 159.3C316.3 162.3 317.3 162.5 328.2 162.5C341 162.4 347.3 160.6 354.4 154.9C358.4 151.8 360.2 151.2 360.2 153.3C360.2 154 360.8 155.8 361.5 157.3L362.7 160H376H389.3L389 120.7C388.8 93.7 388.3 80.9 387.6 79.9C387 79.1 386.2 77.3 385.8 75.8C385 72.1 380 64.9 375.8 61.2C365.2 51.9 345.4 48.1 325.9 51.6ZM358.2 121.3C358.2 129.3 358.1 129.7 355 133C350.3 137.8 344.8 140 337.4 140C329.7 140 325 138 322.2 133.5C318.4 127.3 320.1 121.1 326.9 116.9C330.9 114.4 337.4 113.3 349.5 113.1L358.2 113V121.3Z" fill="#0D1B39" style="fill:#0D1B39;fill:color(display-p3 0.0525 0.1053 0.2250);fill-opacity:1;"/>
<path d="M440.7 51.0002C419.3 54.3002 407.3 66.2002 407.2 84.1002C407.2 93.4002 409.5 99.4002 415.4 105.1C421 110.5 427.6 113.4 443.7 117.6C451.4 119.6 458.9 121.8 460.4 122.6C464.5 124.7 466.5 128.3 465.7 132C463.7 141 443 141.4 425.8 132.8C422.4 131.1 418.9 129.1 418 128.3C416.5 127 416.1 127.2 413.7 131.2C412.2 133.5 410.2 136.7 409.1 138.2C408.1 139.7 407.2 141.2 407.2 141.5C407.2 141.8 406.2 143.4 405 145C402.2 148.8 403 149.7 413.5 154.8C424.1 159.9 432.3 162 444.7 162.7C469.1 164.1 486.5 156.5 493.1 141.5C496.1 134.6 496.2 122.5 493.2 115.7C490.5 109.7 484.8 103.8 478.4 100.6C475.7 99.2002 466.5 96.3002 458.1 94.0002C440.1 89.3002 437.7 87.9002 437.7 82.5002C437.7 76.6002 441.2 74.5002 451 74.6002C459.5 74.7002 466.1 76.4002 474.1 80.5002C477 81.9002 479.5 83.0002 479.6 82.8002C481.2 80.5002 491.2 62.7002 491.2 62.1002C491.2 60.5002 479.3 54.9002 472 53.1002C462.9 50.7002 448.7 49.8002 440.7 51.0002Z" fill="#0D1B39" style="fill:#0D1B39;fill:color(display-p3 0.0525 0.1053 0.2250);fill-opacity:1;"/>
<path d="M547.7 51.5004C537.5 53.6004 528.7 58.3004 521.6 65.4004C514.8 72.3004 511.7 77.5004 508.3 87.5004C505.2 96.6004 504.8 115.4 507.6 124C513.1 140.8 520.9 150.3 534.7 156.9C544.8 161.8 553.7 163.5 565.6 162.7C580.4 161.7 593.8 157.1 602.7 149.8L606.2 146.8L602.3 142.2C600.1 139.6 596.3 135.3 593.9 132.6L589.5 127.6L586.1 130.2C573.5 139.9 553 139.9 543 130.3C539.9 127.4 535.8 118.5 536.6 116.4C537 115.2 543.3 115 574.2 115H611.2V107.6C611.2 103.5 610.5 96.8004 609.8 92.6004C608.4 85.5004 602.8 72.5004 599.9 69.5004C599.1 68.8004 597.4 66.8004 595.9 65.1004C586.4 53.7004 565.4 47.8004 547.7 51.5004ZM570.1 76.4004C574.8 78.9004 578.5 83.5004 580.3 89.3004C581.2 92.2004 581.8 94.8004 581.5 95.2004C581.3 95.7004 570.9 96.0004 558.5 96.0004H535.9L536.5 92.6004C537.7 85.4004 544.9 77.3004 552.2 75.1004C556.9 73.7004 566.1 74.4004 570.1 76.4004Z" fill="#0D1B39" style="fill:#0D1B39;fill:color(display-p3 0.0525 0.1053 0.2250);fill-opacity:1;"/>
<path d="M670.3 54.7002C671.3 57.7002 674.6 66.0002 683.6 88.6002C686.7 96.3002 689.2 103 689.2 103.4C689.2 103.8 689.8 105.6 690.6 107.3C694.2 115.2 696.2 120.3 696.2 121.4C696.2 122 696.8 123.7 697.6 125.2C698.4 126.6 699.5 129.5 700.2 131.7C700.9 133.8 701.8 135.9 702.2 136.5C702.6 137 703.5 139.3 704.2 141.5C704.9 143.7 705.8 145.9 706.2 146.5C706.6 147 707.3 149 707.7 150.7C708 152.5 709 154 709.7 154C710.5 154 711.3 154.4 711.6 154.8C712.6 156.4 706.5 166.2 703.3 168.2C699.8 170.4 692.8 171.1 688 169.7C685.4 169 685.2 169.2 685.2 171.9C685.2 173.5 684.8 175.1 684.4 175.4C683.9 175.7 683 179.2 682.2 183.2C681.5 187.2 680.6 191.2 680.1 192.2C679.3 193.6 680.2 194 686.4 195C697.5 196.9 710.6 195.9 717.8 192.6C727.2 188.3 732.6 181.6 739.5 166C740.4 164.1 741.4 161.1 741.8 159.5C742.2 157.8 742.8 156 743.2 155.5C743.6 154.9 744.3 153.4 744.7 152C745.5 149.1 748.9 140 750.8 135.3C751.6 133.6 752.2 131.6 752.2 130.8C752.2 130.1 752.9 128.2 753.7 126.7C754.5 125.2 755.6 122.5 756.1 120.7C757.7 115.6 760.2 108.8 761.7 105.3C762.5 103.6 763.2 101.6 763.2 100.8C763.2 100.1 763.9 98.2002 764.7 96.7002C765.5 95.2002 766.6 92.5002 767.1 90.7002C768.7 85.6002 771.2 78.8002 772.7 75.3002C773.5 73.6002 774.2 71.7002 774.2 71.0002C774.2 70.3002 774.9 68.4002 775.7 66.7002C776.5 64.9002 777.7 61.7002 778.5 59.5002C779.3 57.3002 780.3 54.7002 780.7 53.7002C781.4 52.1002 780.4 52.0002 765.1 52.2002L748.8 52.5002L748 56.0002C747.5 57.9002 746.7 60.4002 746.2 61.5002C745.7 62.6002 744.8 65.5002 744.2 68.0002C743.6 70.5002 742.7 73.4002 742.2 74.5002C741.5 76.3002 740.2 80.2002 734 101C732.9 104.6 731.7 108.2 731.2 109C730.8 109.9 729.9 113.2 729.2 116.3C727.8 122.2 725.8 123.8 724.7 119.7C723.9 117 711.2 77.1002 710.4 75.0002C710.1 74.2002 708.2 68.8002 706.3 63.0002L702.7 52.5002L686 52.2002L669.2 52.0002L670.3 54.7002Z" fill="#0D1B39" style="fill:#0D1B39;fill:color(display-p3 0.0525 0.1053 0.2250);fill-opacity:1;"/>
<path d="M59.8017 45.7009L15 97V36C15 24.9543 23.9543 16 35 16H83.3775C92.3614 16 101.339 17.2203 110 19.6089C90.5775 21.6711 72.6495 30.9897 59.8017 45.7009Z" fill="url(#paint0_linear_2763_725)" style=""/>
<defs>
<linearGradient id="paint0_linear_2763_725" x1="62.5" y1="16" x2="62.5" y2="97" gradientUnits="userSpaceOnUse">
<stop stop-color="#008CFF" style="stop-color:#008CFF;stop-color:color(display-p3 0.0000 0.5500 1.0000);stop-opacity:1;"/>
<stop offset="1" stop-color="#0A2C99" style="stop-color:#0A2C99;stop-color:color(display-p3 0.0404 0.1710 0.6000);stop-opacity:1;"/>
</linearGradient>
</defs>
</svg>
